<?xml version="1.0" encoding="UTF-8"?>
<!DOCTYPE svg PUBLIC "-//W3C//DTD SVG 1.1//EN" "http://www.w3.org/Graphics/SVG/1.1/DTD/svg11.dtd">
<svg width="160mm" height="90mm" viewBox="0 0 16000 9000" version="1.1" xmlns="http://www.w3.org/2000/svg" stroke-width="28.222" stroke-linejoin="round" xml:space="preserve">
 <path fill="rgb(255,255,255)" stroke="none" d="M 7975,8999 L -25,8999 -25,19 15974,19 15974,8999 7975,8999 Z"/>
 <path fill="none" stroke="rgb(179,179,179)" stroke-linejoin="round" d="M 8453,6712 L 1393,6712 1393,199 15514,199 15514,6712 8453,6712 Z"/>
 <path fill="none" stroke="rgb(179,179,179)" stroke-linejoin="round" d="M 15513,6711 L 1393,6711"/>
 <path fill="none" stroke="rgb(179,179,179)" stroke-linejoin="round" d="M 15513,5897 L 1393,5897"/>
 <path fill="none" stroke="rgb(179,179,179)" stroke-linejoin="round" d="M 15513,5083 L 1393,5083"/>
 <path fill="none" stroke="rgb(179,179,179)" stroke-linejoin="round" d="M 15513,4269 L 1393,4269"/>
 <path fill="none" stroke="rgb(179,179,179)" stroke-linejoin="round" d="M 15513,3454 L 1393,3454"/>
 <path fill="none" stroke="rgb(179,179,179)" stroke-linejoin="round" d="M 15513,2640 L 1393,2640"/>
 <path fill="none" stroke="rgb(179,179,179)" stroke-linejoin="round" d="M 15513,1826 L 1393,1826"/>
 <path fill="none" stroke="rgb(179,179,179)" stroke-linejoin="round" d="M 15513,1012 L 1393,1012"/>
 <path fill="none" stroke="rgb(179,179,179)" stroke-linejoin="round" d="M 15513,198 L 1393,198"/>
 <path fill="none" stroke="rgb(179,179,179)" stroke-linejoin="round" d="M 1393,6861 L 1393,6711"/>
 <path fill="none" stroke="rgb(179,179,179)" stroke-linejoin="round" d="M 1393,6861 L 1393,6711"/>
 <path fill="none" stroke="rgb(179,179,179)" stroke-linejoin="round" d="M 2177,6861 L 2177,6711"/>
 <path fill="none" stroke="rgb(179,179,179)" stroke-linejoin="round" d="M 2177,6861 L 2177,6711"/>
 <path fill="none" stroke="rgb(179,179,179)" stroke-linejoin="round" d="M 2962,6861 L 2962,6711"/>
 <path fill="none" stroke="rgb(179,179,179)" stroke-linejoin="round" d="M 2962,6861 L 2962,6711"/>
 <path fill="none" stroke="rgb(179,179,179)" stroke-linejoin="round" d="M 3746,6861 L 3746,6711"/>
 <path fill="none" stroke="rgb(179,179,179)" stroke-linejoin="round" d="M 3746,6861 L 3746,6711"/>
 <path fill="none" stroke="rgb(179,179,179)" stroke-linejoin="round" d="M 4531,6861 L 4531,6711"/>
 <path fill="none" stroke="rgb(179,179,179)" stroke-linejoin="round" d="M 4531,6861 L 4531,6711"/>
 <path fill="none" stroke="rgb(179,179,179)" stroke-linejoin="round" d="M 5315,6861 L 5315,6711"/>
 <path fill="none" stroke="rgb(179,179,179)" stroke-linejoin="round" d="M 5315,6861 L 5315,6711"/>
 <path fill="none" stroke="rgb(179,179,179)" stroke-linejoin="round" d="M 6100,6861 L 6100,6711"/>
 <path fill="none" stroke="rgb(179,179,179)" stroke-linejoin="round" d="M 6100,6861 L 6100,6711"/>
 <path fill="none" stroke="rgb(179,179,179)" stroke-linejoin="round" d="M 6884,6861 L 6884,6711"/>
 <path fill="none" stroke="rgb(179,179,179)" stroke-linejoin="round" d="M 6884,6861 L 6884,6711"/>
 <path fill="none" stroke="rgb(179,179,179)" stroke-linejoin="round" d="M 7669,6861 L 7669,6711"/>
 <path fill="none" stroke="rgb(179,179,179)" stroke-linejoin="round" d="M 7669,6861 L 7669,6711"/>
 <path fill="none" stroke="rgb(179,179,179)" stroke-linejoin="round" d="M 8453,6861 L 8453,6711"/>
 <path fill="none" stroke="rgb(179,179,179)" stroke-linejoin="round" d="M 8453,6861 L 8453,6711"/>
 <path fill="none" stroke="rgb(179,179,179)" stroke-linejoin="round" d="M 9237,6861 L 9237,6711"/>
 <path fill="none" stroke="rgb(179,179,179)" stroke-linejoin="round" d="M 9237,6861 L 9237,6711"/>
 <path fill="none" stroke="rgb(179,179,179)" stroke-linejoin="round" d="M 10022,6861 L 10022,6711"/>
 <path fill="none" stroke="rgb(179,179,179)" stroke-linejoin="round" d="M 10022,6861 L 10022,6711"/>
 <path fill="none" stroke="rgb(179,179,179)" stroke-linejoin="round" d="M 10806,6861 L 10806,6711"/>
 <path fill="none" stroke="rgb(179,179,179)" stroke-linejoin="round" d="M 10806,6861 L 10806,6711"/>
 <path fill="none" stroke="rgb(179,179,179)" stroke-linejoin="round" d="M 11591,6861 L 11591,6711"/>
 <path fill="none" stroke="rgb(179,179,179)" stroke-linejoin="round" d="M 11591,6861 L 11591,6711"/>
 <path fill="none" stroke="rgb(179,179,179)" stroke-linejoin="round" d="M 12375,6861 L 12375,6711"/>
 <path fill="none" stroke="rgb(179,179,179)" stroke-linejoin="round" d="M 12375,6861 L 12375,6711"/>
 <path fill="none" stroke="rgb(179,179,179)" stroke-linejoin="round" d="M 13160,6861 L 13160,6711"/>
 <path fill="none" stroke="rgb(179,179,179)" stroke-linejoin="round" d="M 13160,6861 L 13160,6711"/>
 <path fill="none" stroke="rgb(179,179,179)" stroke-linejoin="round" d="M 13944,6861 L 13944,6711"/>
 <path fill="none" stroke="rgb(179,179,179)" stroke-linejoin="round" d="M 13944,6861 L 13944,6711"/>
 <path fill="none" stroke="rgb(179,179,179)" stroke-linejoin="round" d="M 14729,6861 L 14729,6711"/>
 <path fill="none" stroke="rgb(179,179,179)" stroke-linejoin="round" d="M 14729,6861 L 14729,6711"/>
 <path fill="none" stroke="rgb(179,179,179)" stroke-linejoin="round" d="M 15513,6861 L 15513,6711"/>
 <path fill="none" stroke="rgb(179,179,179)" stroke-linejoin="round" d="M 15513,6861 L 15513,6711"/>
 <path fill="none" stroke="rgb(179,179,179)" stroke-linejoin="round" d="M 1393,6711 L 15513,6711"/>
 <path fill="none" stroke="rgb(179,179,179)" stroke-linejoin="round" d="M 1243,6711 L 1393,6711"/>
 <path fill="none" stroke="rgb(179,179,179)" stroke-linejoin="round" d="M 1243,6711 L 1393,6711"/>
 <path fill="none" stroke="rgb(179,179,179)" stroke-linejoin="round" d="M 1243,5897 L 1393,5897"/>
 <path fill="none" stroke="rgb(179,179,179)" stroke-linejoin="round" d="M 1243,5897 L 1393,5897"/>
 <path fill="none" stroke="rgb(179,179,179)" stroke-linejoin="round" d="M 1243,5083 L 1393,5083"/>
 <path fill="none" stroke="rgb(179,179,179)" stroke-linejoin="round" d="M 1243,5083 L 1393,5083"/>
 <path fill="none" stroke="rgb(179,179,179)" stroke-linejoin="round" d="M 1243,4269 L 1393,4269"/>
 <path fill="none" stroke="rgb(179,179,179)" stroke-linejoin="round" d="M 1243,4269 L 1393,4269"/>
 <path fill="none" stroke="rgb(179,179,179)" stroke-linejoin="round" d="M 1243,3454 L 1393,3454"/>
 <path fill="none" stroke="rgb(179,179,179)" stroke-linejoin="round" d="M 1243,3454 L 1393,3454"/>
 <path fill="none" stroke="rgb(179,179,179)" stroke-linejoin="round" d="M 1243,2640 L 1393,2640"/>
 <path fill="none" stroke="rgb(179,179,179)" stroke-linejoin="round" d="M 1243,2640 L 1393,2640"/>
 <path fill="none" stroke="rgb(179,179,179)" stroke-linejoin="round" d="M 1243,1826 L 1393,1826"/>
 <path fill="none" stroke="rgb(179,179,179)" stroke-linejoin="round" d="M 1243,1826 L 1393,1826"/>
 <path fill="none" stroke="rgb(179,179,179)" stroke-linejoin="round" d="M 1243,1012 L 1393,1012"/>
 <path fill="none" stroke="rgb(179,179,179)" stroke-linejoin="round" d="M 1243,1012 L 1393,1012"/>
 <path fill="none" stroke="rgb(179,179,179)" stroke-linejoin="round" d="M 1243,198 L 1393,198"/>
 <path fill="none" stroke="rgb(179,179,179)" stroke-linejoin="round" d="M 1243,198 L 1393,198"/>
 <path fill="none" stroke="rgb(179,179,179)" stroke-linejoin="round" d="M 1393,6711 L 1393,198"/>
 <path fill="none" stroke="rgb(0,69,134)" stroke-width="80" stroke-linejoin="round" d="M 1393,5761 L 2177,5265 2962,4853 3746,4204 4531,4270 5315,4104 6100,4027 6884,3996 7669,3996 8453,3963 9237,1048 10022,1041 10806,1038 11591,1036 12375,1035 13160,1034 13944,1034 14729,1034 15513,1034"/>
 <path fill="rgb(0,69,134)" stroke="none" d="M 1268,5636 L 1268,5886 1518,5886 1518,5636 1268,5636 Z"/>
 <path fill="none" stroke="rgb(0,69,134)" stroke-linejoin="round" d="M 1268,5636 L 1268,5886 1518,5886 1518,5636 1268,5636 Z"/>
 <path fill="rgb(0,69,134)" stroke="none" d="M 2052,5141 L 2052,5390 2302,5390 2302,5141 2052,5141 Z"/>
 <path fill="none" stroke="rgb(0,69,134)" stroke-linejoin="round" d="M 2052,5141 L 2052,5390 2302,5390 2302,5141 2052,5141 Z"/>
 <path fill="rgb(0,69,134)" stroke="none" d="M 2837,4728 L 2837,4978 3087,4978 3087,4728 2837,4728 Z"/>
 <path fill="none" stroke="rgb(0,69,134)" stroke-linejoin="round" d="M 2837,4728 L 2837,4978 3087,4978 3087,4728 2837,4728 Z"/>
 <path fill="rgb(0,69,134)" stroke="none" d="M 3621,4079 L 3621,4328 3871,4328 3871,4079 3621,4079 Z"/>
 <path fill="none" stroke="rgb(0,69,134)" stroke-linejoin="round" d="M 3621,4079 L 3621,4328 3871,4328 3871,4079 3621,4079 Z"/>
 <path fill="rgb(0,69,134)" stroke="none" d="M 4406,4145 L 4406,4394 4656,4394 4656,4145 4406,4145 Z"/>
 <path fill="none" stroke="rgb(0,69,134)" stroke-linejoin="round" d="M 4406,4145 L 4406,4394 4656,4394 4656,4145 4406,4145 Z"/>
 <path fill="rgb(0,69,134)" stroke="none" d="M 5190,3979 L 5190,4229 5440,4229 5440,3979 5190,3979 Z"/>
 <path fill="none" stroke="rgb(0,69,134)" stroke-linejoin="round" d="M 5190,3979 L 5190,4229 5440,4229 5440,3979 5190,3979 Z"/>
 <path fill="rgb(0,69,134)" stroke="none" d="M 5975,3902 L 5975,4152 6225,4152 6225,3902 5975,3902 Z"/>
 <path fill="none" stroke="rgb(0,69,134)" stroke-linejoin="round" d="M 5975,3902 L 5975,4152 6225,4152 6225,3902 5975,3902 Z"/>
 <path fill="rgb(0,69,134)" stroke="none" d="M 6759,3871 L 6759,4121 7009,4121 7009,3871 6759,3871 Z"/>
 <path fill="none" stroke="rgb(0,69,134)" stroke-linejoin="round" d="M 6759,3871 L 6759,4121 7009,4121 7009,3871 6759,3871 Z"/>
 <path fill="rgb(0,69,134)" stroke="none" d="M 7544,3871 L 7544,4121 7794,4121 7794,3871 7544,3871 Z"/>
 <path fill="none" stroke="rgb(0,69,134)" stroke-linejoin="round" d="M 7544,3871 L 7544,4121 7794,4121 7794,3871 7544,3871 Z"/>
 <path fill="rgb(0,69,134)" stroke="none" d="M 8328,3838 L 8328,4088 8578,4088 8578,3838 8328,3838 Z"/>
 <path fill="none" stroke="rgb(0,69,134)" stroke-linejoin="round" d="M 8328,3838 L 8328,4088 8578,4088 8578,3838 8328,3838 Z"/>
 <path fill="rgb(0,69,134)" stroke="none" d="M 9112,923 L 9112,1172 9362,1172 9362,923 9112,923 Z"/>
 <path fill="none" stroke="rgb(0,69,134)" stroke-linejoin="round" d="M 9112,923 L 9112,1172 9362,1172 9362,923 9112,923 Z"/>
 <path fill="rgb(0,69,134)" stroke="none" d="M 9897,916 L 9897,1165 10147,1165 10147,916 9897,916 Z"/>
 <path fill="none" stroke="rgb(0,69,134)" stroke-linejoin="round" d="M 9897,916 L 9897,1165 10147,1165 10147,916 9897,916 Z"/>
 <path fill="rgb(0,69,134)" stroke="none" d="M 10681,913 L 10681,1162 10931,1162 10931,913 10681,913 Z"/>
 <path fill="none" stroke="rgb(0,69,134)" stroke-linejoin="round" d="M 10681,913 L 10681,1162 10931,1162 10931,913 10681,913 Z"/>
 <path fill="rgb(0,69,134)" stroke="none" d="M 11466,911 L 11466,1160 11716,1160 11716,911 11466,911 Z"/>
 <path fill="none" stroke="rgb(0,69,134)" stroke-linejoin="round" d="M 11466,911 L 11466,1160 11716,1160 11716,911 11466,911 Z"/>
 <path fill="rgb(0,69,134)" stroke="none" d="M 12250,910 L 12250,1159 12500,1159 12500,910 12250,910 Z"/>
 <path fill="none" stroke="rgb(0,69,134)" stroke-linejoin="round" d="M 12250,910 L 12250,1159 12500,1159 12500,910 12250,910 Z"/>
 <path fill="rgb(0,69,134)" stroke="none" d="M 13035,909 L 13035,1158 13285,1158 13285,909 13035,909 Z"/>
 <path fill="none" stroke="rgb(0,69,134)" stroke-linejoin="round" d="M 13035,909 L 13035,1158 13285,1158 13285,909 13035,909 Z"/>
 <path fill="rgb(0,69,134)" stroke="none" d="M 13819,909 L 13819,1158 14069,1158 14069,909 13819,909 Z"/>
 <path fill="none" stroke="rgb(0,69,134)" stroke-linejoin="round" d="M 13819,909 L 13819,1158 14069,1158 14069,909 13819,909 Z"/>
 <path fill="rgb(0,69,134)" stroke="none" d="M 14604,909 L 14604,1158 14854,1158 14854,909 14604,909 Z"/>
 <path fill="none" stroke="rgb(0,69,134)" stroke-linejoin="round" d="M 14604,909 L 14604,1158 14854,1158 14854,909 14604,909 Z"/>
 <path fill="rgb(0,69,134)" stroke="none" d="M 15388,909 L 15388,1158 15638,1158 15638,909 15388,909 Z"/>
 <path fill="none" stroke="rgb(0,69,134)" stroke-linejoin="round" d="M 15388,909 L 15388,1158 15638,1158 15638,909 15388,909 Z"/>
 <path fill="none" stroke="rgb(255,66,14)" stroke-width="80" stroke-linejoin="round" d="M 1393,6374 L 2177,6349 2962,6337 3746,6330 4531,6326 5315,6324 6100,6323 6884,6323 7669,6323 8453,6323 9237,6323 10022,6322 10806,6322 11591,6322 12375,6322 13160,6322 13944,6322 14729,6322 15513,6322"/>
 <path fill="rgb(255,66,14)" stroke="none" d="M 1268,6374 L 1393,6499 1518,6374 1393,6249 1268,6374 Z"/>
 <path fill="none" stroke="rgb(255,66,14)" stroke-linejoin="round" d="M 1268,6374 L 1393,6499 1518,6374 1393,6249 1268,6374 Z"/>
 <path fill="rgb(255,66,14)" stroke="none" d="M 2052,6349 L 2177,6474 2302,6349 2177,6224 2052,6349 Z"/>
 <path fill="none" stroke="rgb(255,66,14)" stroke-linejoin="round" d="M 2052,6349 L 2177,6474 2302,6349 2177,6224 2052,6349 Z"/>
 <path fill="rgb(255,66,14)" stroke="none" d="M 2837,6337 L 2962,6462 3087,6337 2962,6212 2837,6337 Z"/>
 <path fill="none" stroke="rgb(255,66,14)" stroke-linejoin="round" d="M 2837,6337 L 2962,6462 3087,6337 2962,6212 2837,6337 Z"/>
 <path fill="rgb(255,66,14)" stroke="none" d="M 3621,6330 L 3746,6455 3871,6330 3746,6205 3621,6330 Z"/>
 <path fill="none" stroke="rgb(255,66,14)" stroke-linejoin="round" d="M 3621,6330 L 3746,6455 3871,6330 3746,6205 3621,6330 Z"/>
 <path fill="rgb(255,66,14)" stroke="none" d="M 4406,6326 L 4531,6451 4656,6326 4531,6201 4406,6326 Z"/>
 <path fill="none" stroke="rgb(255,66,14)" stroke-linejoin="round" d="M 4406,6326 L 4531,6451 4656,6326 4531,6201 4406,6326 Z"/>
 <path fill="rgb(255,66,14)" stroke="none" d="M 5190,6324 L 5315,6449 5440,6324 5315,6199 5190,6324 Z"/>
 <path fill="none" stroke="rgb(255,66,14)" stroke-linejoin="round" d="M 5190,6324 L 5315,6449 5440,6324 5315,6199 5190,6324 Z"/>
 <path fill="rgb(255,66,14)" stroke="none" d="M 5975,6323 L 6100,6448 6225,6323 6100,6198 5975,6323 Z"/>
 <path fill="none" stroke="rgb(255,66,14)" stroke-linejoin="round" d="M 5975,6323 L 6100,6448 6225,6323 6100,6198 5975,6323 Z"/>
 <path fill="rgb(255,66,14)" stroke="none" d="M 6759,6323 L 6884,6448 7009,6323 6884,6198 6759,6323 Z"/>
 <path fill="none" stroke="rgb(255,66,14)" stroke-linejoin="round" d="M 6759,6323 L 6884,6448 7009,6323 6884,6198 6759,6323 Z"/>
 <path fill="rgb(255,66,14)" stroke="none" d="M 7544,6323 L 7669,6448 7794,6323 7669,6198 7544,6323 Z"/>
 <path fill="none" stroke="rgb(255,66,14)" stroke-linejoin="round" d="M 7544,6323 L 7669,6448 7794,6323 7669,6198 7544,6323 Z"/>
 <path fill="rgb(255,66,14)" stroke="none" d="M 8328,6323 L 8453,6448 8578,6323 8453,6198 8328,6323 Z"/>
 <path fill="none" stroke="rgb(255,66,14)" stroke-linejoin="round" d="M 8328,6323 L 8453,6448 8578,6323 8453,6198 8328,6323 Z"/>
 <path fill="rgb(255,66,14)" stroke="none" d="M 9112,6323 L 9237,6448 9362,6323 9237,6198 9112,6323 Z"/>
 <path fill="none" stroke="rgb(255,66,14)" stroke-linejoin="round" d="M 9112,6323 L 9237,6448 9362,6323 9237,6198 9112,6323 Z"/>
 <path fill="rgb(255,66,14)" stroke="none" d="M 9897,6322 L 10022,6447 10147,6322 10022,6197 9897,6322 Z"/>
 <path fill="none" stroke="rgb(255,66,14)" stroke-linejoin="round" d="M 9897,6322 L 10022,6447 10147,6322 10022,6197 9897,6322 Z"/>
 <path fill="rgb(255,66,14)" stroke="none" d="M 10681,6322 L 10806,6447 10931,6322 10806,6197 10681,6322 Z"/>
 <path fill="none" stroke="rgb(255,66,14)" stroke-linejoin="round" d="M 10681,6322 L 10806,6447 10931,6322 10806,6197 10681,6322 Z"/>
 <path fill="rgb(255,66,14)" stroke="none" d="M 11466,6322 L 11591,6447 11716,6322 11591,6197 11466,6322 Z"/>
 <path fill="none" stroke="rgb(255,66,14)" stroke-linejoin="round" d="M 11466,6322 L 11591,6447 11716,6322 11591,6197 11466,6322 Z"/>
 <path fill="rgb(255,66,14)" stroke="none" d="M 12250,6322 L 12375,6447 12500,6322 12375,6197 12250,6322 Z"/>
 <path fill="none" stroke="rgb(255,66,14)" stroke-linejoin="round" d="M 12250,6322 L 12375,6447 12500,6322 12375,6197 12250,6322 Z"/>
 <path fill="rgb(255,66,14)" stroke="none" d="M 13035,6322 L 13160,6447 13285,6322 13160,6197 13035,6322 Z"/>
 <path fill="none" stroke="rgb(255,66,14)" stroke-linejoin="round" d="M 13035,6322 L 13160,6447 13285,6322 13160,6197 13035,6322 Z"/>
 <path fill="rgb(255,66,14)" stroke="none" d="M 13819,6322 L 13944,6447 14069,6322 13944,6197 13819,6322 Z"/>
 <path fill="none" stroke="rgb(255,66,14)" stroke-linejoin="round" d="M 13819,6322 L 13944,6447 14069,6322 13944,6197 13819,6322 Z"/>
 <path fill="rgb(255,66,14)" stroke="none" d="M 14604,6322 L 14729,6447 14854,6322 14729,6197 14604,6322 Z"/>
 <path fill="none" stroke="rgb(255,66,14)" stroke-linejoin="round" d="M 14604,6322 L 14729,6447 14854,6322 14729,6197 14604,6322 Z"/>
 <path fill="rgb(255,66,14)" stroke="none" d="M 15388,6322 L 15513,6447 15638,6322 15513,6197 15388,6322 Z"/>
 <path fill="none" stroke="rgb(255,66,14)" stroke-linejoin="round" d="M 15388,6322 L 15513,6447 15638,6322 15513,6197 15388,6322 Z"/>
 <text class="TextShape" transform="translate(1177,7484) rotate(-44.9) translate(-1177,-7484)"><tspan class="TextParagraph" font-family="Liberation Sans" font-size="353px" font-weight="400"><tspan class="TextPosition" x="1177" y="7484"><tspan fill="rgb(0,0,0)" stroke="none">4K</tspan></tspan></tspan></text>
 <text class="TextShape" transform="translate(1961,7484) rotate(-44.9) translate(-1961,-7484)"><tspan class="TextParagraph" font-family="Liberation Sans" font-size="353px" font-weight="400"><tspan class="TextPosition" x="1961" y="7484"><tspan fill="rgb(0,0,0)" stroke="none">8K</tspan></tspan></tspan></text>
 <text class="TextShape" transform="translate(2614,7616) rotate(-44.9) translate(-2614,-7616)"><tspan class="TextParagraph" font-family="Liberation Sans" font-size="353px" font-weight="400"><tspan class="TextPosition" x="2614" y="7616"><tspan fill="rgb(0,0,0)" stroke="none">16K</tspan></tspan></tspan></text>
 <text class="TextShape" transform="translate(3398,7616) rotate(-44.9) translate(-3398,-7616)"><tspan class="TextParagraph" font-family="Liberation Sans" font-size="353px" font-weight="400"><tspan class="TextPosition" x="3398" y="7616"><tspan fill="rgb(0,0,0)" stroke="none">32K</tspan></tspan></tspan></text>
 <text class="TextShape" transform="translate(4183,7616) rotate(-44.9) translate(-4183,-7616)"><tspan class="TextParagraph" font-family="Liberation Sans" font-size="353px" font-weight="400"><tspan class="TextPosition" x="4183" y="7616"><tspan fill="rgb(0,0,0)" stroke="none">64K</tspan></tspan></tspan></text>
 <text class="TextShape" transform="translate(4836,7745) rotate(-44.9) translate(-4836,-7745)"><tspan class="TextParagraph" font-family="Liberation Sans" font-size="353px" font-weight="400"><tspan class="TextPosition" x="4836" y="7745"><tspan fill="rgb(0,0,0)" stroke="none">128K</tspan></tspan></tspan></text>
 <text class="TextShape" transform="translate(5621,7745) rotate(-44.9) translate(-5621,-7745)"><tspan class="TextParagraph" font-family="Liberation Sans" font-size="353px" font-weight="400"><tspan class="TextPosition" x="5621" y="7745"><tspan fill="rgb(0,0,0)" stroke="none">256K</tspan></tspan></tspan></text>
 <text class="TextShape" transform="translate(6405,7745) rotate(-44.9) translate(-6405,-7745)"><tspan class="TextParagraph" font-family="Liberation Sans" font-size="353px" font-weight="400"><tspan class="TextPosition" x="6405" y="7745"><tspan fill="rgb(0,0,0)" stroke="none">512K</tspan></tspan></tspan></text>
 <text class="TextShape" transform="translate(7416,7520) rotate(-44.9) translate(-7416,-7520)"><tspan class="TextParagraph" font-family="Liberation Sans" font-size="353px" font-weight="400"><tspan class="TextPosition" x="7416" y="7520"><tspan fill="rgb(0,0,0)" stroke="none">1M</tspan></tspan></tspan></text>
 <text class="TextShape" transform="translate(8201,7520) rotate(-44.9) translate(-8201,-7520)"><tspan class="TextParagraph" font-family="Liberation Sans" font-size="353px" font-weight="400"><tspan class="TextPosition" x="8201" y="7520"><tspan fill="rgb(0,0,0)" stroke="none">2M</tspan></tspan></tspan></text>
 <text class="TextShape" transform="translate(8985,7520) rotate(-44.9) translate(-8985,-7520)"><tspan class="TextParagraph" font-family="Liberation Sans" font-size="353px" font-weight="400"><tspan class="TextPosition" x="8985" y="7520"><tspan fill="rgb(0,0,0)" stroke="none">4M</tspan></tspan></tspan></text>
 <text class="TextShape" transform="translate(9770,7520) rotate(-44.9) translate(-9770,-7520)"><tspan class="TextParagraph" font-family="Liberation Sans" font-size="353px" font-weight="400"><tspan class="TextPosition" x="9770" y="7520"><tspan fill="rgb(0,0,0)" stroke="none">8M</tspan></tspan></tspan></text>
 <text class="TextShape" transform="translate(10422,7652) rotate(-44.9) translate(-10422,-7652)"><tspan class="TextParagraph" font-family="Liberation Sans" font-size="353px" font-weight="400"><tspan class="TextPosition" x="10422" y="7652"><tspan fill="rgb(0,0,0)" stroke="none">16M</tspan></tspan></tspan></text>
 <text class="TextShape" transform="translate(11207,7652) rotate(-44.9) translate(-11207,-7652)"><tspan class="TextParagraph" font-family="Liberation Sans" font-size="353px" font-weight="400"><tspan class="TextPosition" x="11207" y="7652"><tspan fill="rgb(0,0,0)" stroke="none">32M</tspan></tspan></tspan></text>
 <text class="TextShape" transform="translate(11990,7652) rotate(-44.9) translate(-11990,-7652)"><tspan class="TextParagraph" font-family="Liberation Sans" font-size="353px" font-weight="400"><tspan class="TextPosition" x="11990" y="7652"><tspan fill="rgb(0,0,0)" stroke="none">64M</tspan></tspan></tspan></text>
 <text class="TextShape" transform="translate(12644,7783) rotate(-44.9) translate(-12644,-7783)"><tspan class="TextParagraph" font-family="Liberation Sans" font-size="353px" font-weight="400"><tspan class="TextPosition" x="12644" y="7783"><tspan fill="rgb(0,0,0)" stroke="none">128M</tspan></tspan></tspan></text>
 <text class="TextShape" transform="translate(13428,7783) rotate(-44.9) translate(-13428,-7783)"><tspan class="TextParagraph" font-family="Liberation Sans" font-size="353px" font-weight="400"><tspan class="TextPosition" x="13428" y="7783"><tspan fill="rgb(0,0,0)" stroke="none">256M</tspan></tspan></tspan></text>
 <text class="TextShape" transform="translate(14213,7783) rotate(-44.9) translate(-14213,-7783)"><tspan class="TextParagraph" font-family="Liberation Sans" font-size="353px" font-weight="400"><tspan class="TextPosition" x="14213" y="7783"><tspan fill="rgb(0,0,0)" stroke="none">512M</tspan></tspan></tspan></text>
 <text class="TextShape" transform="translate(15278,7502) rotate(-44.9) translate(-15278,-7502)"><tspan class="TextParagraph" font-family="Liberation Sans" font-size="353px" font-weight="400"><tspan class="TextPosition" x="15278" y="7502"><tspan fill="rgb(0,0,0)" stroke="none">1G</tspan></tspan></tspan></text>
 <text class="TextShape"><tspan class="TextParagraph" font-family="Liberation Sans" font-size="352px" font-weight="400"><tspan class="TextPosition" x="667" y="6831"><tspan fill="rgb(0,0,0)" stroke="none">0.0</tspan></tspan></tspan></text>
 <text class="TextShape"><tspan class="TextParagraph" font-family="Liberation Sans" font-size="352px" font-weight="400"><tspan class="TextPosition" x="482" y="6017"><tspan fill="rgb(0,0,0)" stroke="none">50.0</tspan></tspan></tspan></text>
 <text class="TextShape"><tspan class="TextParagraph" font-family="Liberation Sans" font-size="352px" font-weight="400"><tspan class="TextPosition" x="296" y="5203"><tspan fill="rgb(0,0,0)" stroke="none">100.0</tspan></tspan></tspan></text>
 <text class="TextShape"><tspan class="TextParagraph" font-family="Liberation Sans" font-size="352px" font-weight="400"><tspan class="TextPosition" x="296" y="4389"><tspan fill="rgb(0,0,0)" stroke="none">150.0</tspan></tspan></tspan></text>
 <text class="TextShape"><tspan class="TextParagraph" font-family="Liberation Sans" font-size="352px" font-weight="400"><tspan class="TextPosition" x="296" y="3575"><tspan fill="rgb(0,0,0)" stroke="none">200.0</tspan></tspan></tspan></text>
 <text class="TextShape"><tspan class="TextParagraph" font-family="Liberation Sans" font-size="352px" font-weight="400"><tspan class="TextPosition" x="296" y="2760"><tspan fill="rgb(0,0,0)" stroke="none">250.0</tspan></tspan></tspan></text>
 <text class="TextShape"><tspan class="TextParagraph" font-family="Liberation Sans" font-size="352px" font-weight="400"><tspan class="TextPosition" x="296" y="1946"><tspan fill="rgb(0,0,0)" stroke="none">300.0</tspan></tspan></tspan></text>
 <text class="TextShape"><tspan class="TextParagraph" font-family="Liberation Sans" font-size="352px" font-weight="400"><tspan class="TextPosition" x="296" y="1132"><tspan fill="rgb(0,0,0)" stroke="none">350.0</tspan></tspan></tspan></text>
 <text class="TextShape"><tspan class="TextParagraph" font-family="Liberation Sans" font-size="352px" font-weight="400"><tspan class="TextPosition" x="296" y="318"><tspan fill="rgb(0,0,0)" stroke="none">400.0</tspan></tspan></tspan></text>
 <path fill="none" stroke="rgb(0,69,134)" stroke-width="80" stroke-linejoin="round" d="M 4152,8515 L 4952,8515"/>
 <path fill="rgb(0,69,134)" stroke="none" d="M 4446,8410 L 4446,8621 4657,8621 4657,8410 4446,8410 Z"/>
 <path fill="none" stroke="rgb(0,69,134)" stroke-linejoin="round" d="M 4446,8410 L 4446,8621 4657,8621 4657,8410 4446,8410 Z"/>
 <path fill="none" stroke="rgb(255,66,14)" stroke-width="80" stroke-linejoin="round" d="M 8116,8515 L 8916,8515"/>
 <path fill="rgb(255,66,14)" stroke="none" d="M 8410,8515 L 8516,8621 8621,8515 8516,8410 8410,8515 Z"/>
 <path fill="none" stroke="rgb(255,66,14)" stroke-linejoin="round" d="M 8410,8515 L 8516,8621 8621,8515 8516,8410 8410,8515 Z"/>
 <text class="TextShape"><tspan class="TextParagraph" font-family="Liberation Sans" font-size="352px" font-weight="400"><tspan class="TextPosition" x="5052" y="8635"><tspan fill="rgb(0,0,0)" stroke="none">Memory (MiB/sec)</tspan></tspan></tspan></text>
 <text class="TextShape"><tspan class="TextParagraph" font-family="Liberation Sans" font-size="352px" font-weight="400"><tspan class="TextPosition" x="9016" y="8635"><tspan fill="rgb(0,0,0)" stroke="none">Encrypt (MiB/sec)</tspan></tspan></tspan></text>
</svg>